<svg xmlns="http://www.w3.org/2000/svg" width="27" height="24.023" viewBox="0 0 27 24.023">
  <g id="Group_86" data-name="Group 86" transform="translate(0 0.414)">
    <path id="Path_58" data-name="Path 58" d="M23.692,8.514c.732.655,1.349,1.291,1.811,1.792a1.927,1.927,0,0,1,0,2.582c-2.023,2.177-6.628,6.416-12,6.416h-.771m-5.26-1.676A23.892,23.892,0,0,1,1.5,12.888a1.927,1.927,0,0,1,0-2.582C3.519,8.129,8.124,3.89,13.5,3.89a12.639,12.639,0,0,1,6.031,1.676M24.1,1,2.9,22.194" fill="none" stroke="#656565" stroke-linecap="round" stroke-linejoin="round" stroke-width="2"/>
    <path id="Path_59" data-name="Path 59" d="M10.783,14.314A3.842,3.842,0,1,1,16.216,8.88m.636,4.643a3.853,3.853,0,0,1-1.426,1.406" fill="none" stroke="#656565" stroke-linecap="round" stroke-linejoin="round" stroke-width="2"/>
  </g>
</svg>
