<svg id="Group_85" data-name="Group 85" xmlns="http://www.w3.org/2000/svg" width="27" height="17" viewBox="0 0 27 17">
  <path id="Path_56" data-name="Path 56" d="M25.5,7.244a1.838,1.838,0,0,1,0,2.513C23.48,11.875,18.876,16,13.5,16s-9.981-4.125-12-6.244a1.838,1.838,0,0,1,0-2.513C3.519,5.125,8.124,1,13.5,1S23.48,5.125,25.5,7.244Z" fill="none" stroke="#00cb45" stroke-linecap="round" stroke-linejoin="round" stroke-width="2"/>
  <path id="Path_57" data-name="Path 57" d="M13.5,12.25A3.8,3.8,0,0,0,17.353,8.5a3.855,3.855,0,0,0-7.707,0A3.8,3.8,0,0,0,13.5,12.25Z" fill="none" stroke="#00cb45" stroke-linecap="round" stroke-linejoin="round" stroke-width="2"/>
</svg>
